<svg width="32" height="32" viewBox="0 0 32 32" fill="none" xmlns="http://www.w3.org/2000/svg">
  <rect width="32" height="32" rx="8" fill="#121212"/>
  <path d="M16 4C16 4 6 14 6 22C6 26 9 30 16 30C23 30 26 26 26 22C26 14 16 4 16 4Z" fill="url(#gradient1)"/>
  <path d="M16 8C16 8 10 15 10 21C10 24 12 27 16 27C20 27 22 24 22 21C22 15 16 8 16 8Z" fill="#121212" opacity="0.3"/>
  <defs>
    <linearGradient id="gradient1" x1="6" y1="4" x2="26" y2="30" gradientUnits="userSpaceOnUse">
      <stop offset="0%" stop-color="#9D4EDD"/>
      <stop offset="100%" stop-color="#7B2CBF"/>
    </linearGradient>
  </defs>
</svg>
